<svg width="750" height="240" viewBox="0 0 750 240" fill="none" xmlns="http://www.w3.org/2000/svg">
<path d="M197 10H25C11.7452 10 1 20.7452 1 34V206C1 219.255 11.7452 230 25 230H197C210.255 230 221 219.255 221 206V34C221 20.7452 210.255 10 197 10Z" fill="#5869FC"/>
<mask id="mask0_2960_70" style="mask-type:alpha" maskUnits="userSpaceOnUse" x="36" y="30" width="150" height="181">
<path d="M36 54C36 40.7452 46.7452 30 60 30H162C175.255 30 186 40.7452 186 54V186.592C186 199.847 175.255 210.592 162 210.592H60C46.7452 210.592 36 199.847 36 186.592V54Z" fill="#5869FC"/>
</mask>
<g mask="url(#mask0_2960_70)">
<path d="M58.6687 187.99C87.5718 216.893 134.383 216.943 163.225 188.101C188.648 162.678 191.624 123.293 172.177 94.5183L168.167 98.5283L165.708 100.988L151.09 115.606C149.892 116.804 149.596 118.621 150.222 120.196C156.268 135.42 153.146 153.426 140.848 165.724C124.339 182.233 97.5432 182.205 80.9986 165.66C64.4541 149.116 64.2763 122.47 80.7859 105.96L96.0762 121.25L96.7368 121.911C98.2989 123.473 100.831 123.473 102.393 121.911L106.499 117.805L109.243 115.061C110.805 113.499 110.805 110.966 109.243 109.404L108.583 108.743L93.1823 93.3427C97.3126 89.2124 110.828 75.9175 110.828 75.9175L136.142 101.231C137.704 102.793 140.237 102.793 141.799 101.231L153.875 89.1551L159.068 83.9619L161.3 81.7298L111 30.9871C99.2949 42.6874 73.0355 68.9564 58.5582 83.4336C29.7161 112.276 29.7656 159.087 58.6687 187.99Z" fill="white"/>
</g>
<path d="M264 192.779V49.6433H299.772V192.779H264ZM292.378 192.779V162.295H369.118V192.779H292.378ZM292.378 134.637V104.96H361.923V134.637H292.378ZM292.378 80.1279V49.6433H367.918V80.1279H292.378Z" fill="#181C39"/>
<path d="M386.895 192.779V94.058H421.668V192.779H386.895ZM421.668 139.078L406.08 125.754C409.944 114.583 415.073 106.171 421.468 100.518C427.863 94.8655 436.19 92.0391 446.448 92.0391C451.112 92.0391 455.108 92.6448 458.439 93.8561C461.903 95.0674 464.834 96.9517 467.232 99.5089L447.048 126.763C445.982 125.552 444.45 124.61 442.452 123.937C440.586 123.129 438.455 122.725 436.057 122.725C431.527 122.725 427.996 124.139 425.465 126.965C422.934 129.657 421.668 133.694 421.668 139.078Z" fill="#181C39"/>
<path d="M473.735 192.779V94.0579H508.708V192.779H473.735ZM491.122 82.5505C485.926 82.5505 481.596 80.8008 478.132 77.3015C474.668 73.6676 472.936 69.1588 472.936 63.7752C472.936 58.5262 474.668 54.0848 478.132 50.4509C481.596 46.817 485.926 45 491.122 45C496.584 45 500.981 46.817 504.311 50.4509C507.775 54.0848 509.507 58.5262 509.507 63.7752C509.507 69.1588 507.775 73.6676 504.311 77.3015C500.981 80.8008 496.584 82.5505 491.122 82.5505Z" fill="#181C39"/>
<path d="M592.322 192.779V137.059C592.322 132.483 590.989 128.917 588.325 126.359C585.66 123.668 582.263 122.322 578.133 122.322C575.335 122.322 572.804 122.927 570.539 124.139C568.407 125.35 566.742 127.032 565.543 129.186C564.344 131.339 563.744 133.964 563.744 137.059L550.155 130.599C550.155 122.658 551.887 115.861 555.351 110.209C558.815 104.421 563.544 99.9799 569.539 96.8844C575.668 93.6542 582.596 92.0391 590.323 92.0391C597.384 92.0391 603.646 93.7215 609.108 97.0862C614.704 100.316 619.101 104.69 622.298 110.209C625.496 115.727 627.094 121.985 627.094 128.984V192.779H592.322ZM528.971 192.779V94.058H563.744V192.779H528.971Z" fill="#181C39"/>
<path d="M693.644 195C683.119 195 673.726 192.779 665.466 188.338C657.339 183.762 650.877 177.571 646.081 169.764C641.285 161.824 638.887 152.941 638.887 143.116C638.887 133.291 641.218 124.542 645.881 116.871C650.677 109.065 657.206 102.941 665.466 98.4993C673.726 93.9233 683.052 91.6353 693.444 91.6353C703.836 91.6353 713.095 93.9233 721.222 98.4993C729.482 102.941 736.01 109.065 740.807 116.871C745.603 124.542 748.001 133.291 748.001 143.116C748.001 152.941 745.603 161.824 740.807 169.764C736.144 177.571 729.682 183.762 721.422 188.338C713.295 192.779 704.036 195 693.644 195ZM693.444 163.708C697.307 163.708 700.638 162.9 703.436 161.285C706.367 159.536 708.632 157.113 710.231 154.018C711.829 150.922 712.629 147.355 712.629 143.318C712.629 139.28 711.763 135.781 710.031 132.82C708.432 129.724 706.234 127.369 703.436 125.754C700.638 124.004 697.307 123.129 693.444 123.129C689.713 123.129 686.383 124.004 683.452 125.754C680.521 127.503 678.256 129.926 676.657 133.022C675.058 135.983 674.259 139.482 674.259 143.52C674.259 147.423 675.058 150.922 676.657 154.018C678.256 157.113 680.521 159.536 683.452 161.285C686.383 162.9 689.713 163.708 693.444 163.708Z" fill="#181C39"/>
</svg>
