<svg width="220" height="220" viewBox="0 0 220 220" fill="none" xmlns="http://www.w3.org/2000/svg">
<path d="M196 0H24C10.7452 0 0 10.7452 0 24V196C0 209.255 10.7452 220 24 220H196C209.255 220 220 209.255 220 196V24C220 10.7452 209.255 0 196 0Z" fill="#5869FC"/>
<mask id="mask0_2960_91" style="mask-type:alpha" maskUnits="userSpaceOnUse" x="35" y="20" width="150" height="181">
<path d="M35 44C35 30.7452 45.7452 20 59 20H161C174.255 20 185 30.7452 185 44V176.592C185 189.847 174.255 200.592 161 200.592H59C45.7452 200.592 35 189.847 35 176.592V44Z" fill="#5869FC"/>
</mask>
<g mask="url(#mask0_2960_91)">
<path d="M57.6687 177.99C86.5718 206.893 133.383 206.943 162.225 178.101C187.648 152.678 190.624 113.293 171.177 84.5183L167.167 88.5283L164.708 90.9881L150.09 105.606C148.892 106.804 148.596 108.621 149.222 110.196C155.268 125.42 152.146 143.426 139.848 155.724C123.339 172.233 96.5432 172.205 79.9986 155.66C63.4541 139.116 63.2763 112.47 79.7859 95.9601L95.0762 111.25L95.7368 111.911C97.2989 113.473 99.8313 113.473 101.393 111.911L105.499 107.805L108.243 105.061C109.805 103.499 109.805 100.966 108.243 99.4041L107.583 98.7431L92.1823 83.3427C96.3126 79.2124 109.828 65.9175 109.828 65.9175L135.142 91.2311C136.704 92.7931 139.237 92.7931 140.799 91.2311L152.875 79.1551L158.068 73.9619L160.3 71.7298L110 20.9871C98.2949 32.6874 72.0355 58.9564 57.5582 73.4336C28.7161 102.276 28.7656 149.087 57.6687 177.99Z" fill="white"/>
</g>
</svg>
